<?xml version="1.0" standalone="no"?>
<!DOCTYPE svg PUBLIC "-//W3C//DTD SVG 20010904//EN"
 "http://www.w3.org/TR/2001/REC-SVG-20010904/DTD/svg10.dtd">
<svg version="1.0" xmlns="http://www.w3.org/2000/svg"
 width="260.000000pt" height="260.000000pt" viewBox="0 0 260.000000 260.000000"
 preserveAspectRatio="xMidYMid meet">
<metadata>
Created by potrace 1.14, written by Peter Selinger 2001-2017
</metadata>
<g transform="translate(0.000000,260.000000) scale(0.100000,-0.100000)"
fill="#000000" stroke="none">
<path d="M649 2126 c-2 -2 -31 -6 -63 -10 -33 -3 -62 -10 -65 -15 -5 -7 -6
-1126 -2 -1163 1 -5 35 -8 76 -8 l75 0 0 238 0 237 102 -2 c287 -5 457 118
475 344 13 175 -65 298 -227 354 -54 19 -90 23 -216 25 -84 2 -153 2 -155 0z
m311 -144 c87 -38 129 -97 135 -190 6 -100 -40 -188 -119 -229 -66 -34 -123
-41 -273 -34 l-33 1 0 234 0 235 33 3 c89 9 213 0 257 -20z"/>
<path d="M1773 1629 c-69 -22 -66 -16 -64 -121 l1 -58 -68 0 -68 0 1 -57 0
-58 67 -3 66 -3 0 -270 c1 -313 9 -358 71 -420 55 -55 153 -74 254 -48 l42 10
-3 57 -4 57 -73 0 c-128 0 -135 18 -135 364 l0 251 110 0 c81 0 110 3 111 13
0 6 1 33 2 60 l2 47 -112 0 -113 0 0 100 c0 74 -3 100 -12 99 -7 0 -41 -9 -75
-20z"/>
<path d="M780 1235 c-40 -42 -11 -115 45 -115 58 0 86 77 42 118 -27 26 -61
25 -87 -3z"/>
<path d="M1155 1248 c-27 -15 -35 -28 -35 -60 0 -59 65 -87 108 -48 29 27 28
71 -1 98 -26 25 -43 27 -72 10z"/>
<path d="M1507 1240 c-48 -38 -24 -120 36 -120 32 0 67 35 67 68 0 60 -57 88
-103 52z"/>
</g>
</svg>
